<svg xmlns="http://www.w3.org/2000/svg" xmlns:xlink="http://www.w3.org/1999/xlink" version="1.1" width="1000" height="1000" viewBox="0 0 1000 1000" xml:space="preserve">
<desc>Created with Fabric.js 3.5.0</desc>
<defs>
</defs>
<rect x="0" y="0" width="100%" height="100%" fill="#ffffff"/>
<g transform="matrix(1.2122 0 0 1.2122 492.4916 439.0923)" id="830536">
<path style="stroke: none; stroke-width: 1; stroke-dasharray: none; stroke-linecap: butt; stroke-dashoffset: 0; stroke-linejoin: miter; stroke-miterlimit: 4; is-custom-font: none; font-file-url: none; fill: rgb(102,102,102); fill-rule: evenodd; opacity: 1;" transform=" translate(-407.5, -357.5005)" d="M 10.67 185.513 L 76.235 55.104 C 101.04 5.761 161.152 -14.13 210.496 10.677 l 0.423 0.214 l 198.143 100.797 c 0.815 0.414 1.631 0.826 2.449 1.235 l 209.29 104.666 c 49.252 24.631 69.211 84.525 44.58 133.777 a 99.709 99.709 0 0 1 -7.037 11.923 c -35.978 52.285 -23.088 123.797 28.88 160.23 L 787.7 593.96 c 28.978 20.315 36 60.274 15.685 89.251 a 64.077 64.077 0 0 1 -1.682 2.29 c -23.312 30.3 -65.577 38.423 -98.46 18.923 L 49.007 316.443 c -45.187 -26.797 -61.934 -83.992 -38.336 -130.93 z" stroke-linecap="round"/>
</g>
<g transform="matrix(1.2122 0 0 1.2122 352.4834 579.1122)" id="588815">
<path style="stroke: none; stroke-width: 1; stroke-dasharray: none; stroke-linecap: butt; stroke-dashoffset: 0; stroke-linejoin: miter; stroke-miterlimit: 4; is-custom-font: none; font-file-url: none; fill: rgb(102,102,102); fill-rule: evenodd; opacity: 1;" transform=" translate(-292.0004, -473.0002)" d="M 22.613 436.729 l 43.383 -86.527 c 24.754 -49.37 84.843 -69.327 134.214 -44.573 l 0.618 0.312 l 144.966 73.946 c 0.816 0.416 1.633 0.83 2.452 1.24 l 168.488 84.49 c 47.987 24.064 68.46 81.691 46.409 130.636 c -21.069 46.765 -76.058 67.596 -122.823 46.528 a 92.87 92.87 0 0 1 -2.832 -1.334 l -230.87 -113.52 c -19.626 -9.65 -43.358 -1.563 -53.008 18.062 a 39.598 39.598 0 0 0 -0.156 34.625 c 6.164 12.826 0.763 28.22 -12.064 34.384 a 25.766 25.766 0 0 1 -27.366 -3.192 l -64.912 -52.512 C 12.58 529.74 1.552 478.735 22.613 436.73 z" stroke-linecap="round"/>
</g>
</svg>